<svg width="19" height="15" viewBox="0 0 19 15" fill="none" xmlns="http://www.w3.org/2000/svg">
<g clip-path="url(#clip0_155_3761)">
<path d="M0 7.40234C0 7.64648 0.107422 7.87109 0.302734 8.05664L6.78711 14.5312C6.98242 14.7168 7.1875 14.8047 7.42188 14.8047C7.90039 14.8047 8.28125 14.4531 8.28125 13.9648C8.28125 13.7305 8.19336 13.4961 8.03711 13.3496L5.84961 11.123L1.98242 7.59766L1.77734 8.07617L4.92188 8.27148H17.2754C17.7832 8.27148 18.1348 7.91016 18.1348 7.40234C18.1348 6.89453 17.7832 6.5332 17.2754 6.5332H4.92188L1.77734 6.72852L1.98242 7.2168L5.84961 3.68164L8.03711 1.45508C8.19336 1.29883 8.28125 1.07422 8.28125 0.839844C8.28125 0.351562 7.90039 0 7.42188 0C7.1875 0 6.98242 0.078125 6.76758 0.292969L0.302734 6.74805C0.107422 6.93359 0 7.1582 0 7.40234Z" fill="black" fill-opacity="0.85"/>
</g>
<defs>
<clipPath id="clip0_155_3761">
<rect width="18.4961" height="14.8145" fill="white"/>
</clipPath>
</defs>
</svg>
