<svg width="18" height="18" viewBox="0 0 18 18" fill="none" xmlns="http://www.w3.org/2000/svg">
<g clip-path="url(#clip0_449_2552)">
<path d="M7.17725 17.6162C7.59717 17.6162 7.9292 17.4307 8.16358 17.0694L17.3921 2.53808C17.5679 2.25488 17.6363 2.04004 17.6363 1.81543C17.6363 1.27832 17.2847 0.926758 16.7476 0.926758C16.357 0.926758 16.1421 1.05371 15.9078 1.4248L7.13818 15.3994L2.5874 9.44238C2.34326 9.10058 2.09912 8.96386 1.74756 8.96386C1.19092 8.96386 0.810059 9.34472 0.810059 9.88183C0.810059 10.1064 0.907715 10.3604 1.09326 10.5947L6.16162 17.0498C6.45459 17.4307 6.75733 17.6162 7.17725 17.6162Z" fill="#F3F4F7"/>
</g>
<defs>
<clipPath id="clip0_449_2552">
<rect width="17.1875" height="17.2363" fill="white" transform="translate(0.810059 0.379883)"/>
</clipPath>
</defs>
</svg>
