<svg width="10" height="17" viewBox="0 0 10 17" fill="none" xmlns="http://www.w3.org/2000/svg">
<path d="M9.6895 8.49658C9.6895 8.25244 9.5918 8.02783 9.4062 7.85205L1.67188 0.273926C1.49609 0.10791 1.28125 0.0200195 1.02734 0.0200195C0.529302 0.0200195 0.138672 0.400879 0.138672 0.908692C0.138672 1.15283 0.236332 1.37744 0.392582 1.54346L7.50195 8.49658L0.392582 15.4497C0.236332 15.6157 0.138672 15.8305 0.138672 16.0845C0.138672 16.5923 0.529302 16.9731 1.02734 16.9731C1.28125 16.9731 1.49609 16.8852 1.67188 16.7095L9.4062 9.14111C9.5918 8.95557 9.6895 8.74072 9.6895 8.49658Z" fill="black" fill-opacity="0.85"/>
</svg>
