<svg width="18" height="18" viewBox="0 0 18 18" fill="none" xmlns="http://www.w3.org/2000/svg">
<path d="M8.95264 17.4736C7.78499 17.4736 6.68929 17.2523 5.66553 16.8096C4.64176 16.3724 3.74251 15.7664 2.96777 14.9917C2.19303 14.2114 1.58431 13.3122 1.1416 12.2939C0.704427 11.2702 0.48584 10.1745 0.48584 9.00684C0.48584 7.83919 0.704427 6.74349 1.1416 5.71973C1.58431 4.69596 2.19303 3.79671 2.96777 3.02197C3.74251 2.24723 4.64176 1.64128 5.66553 1.2041C6.68929 0.761393 7.78499 0.540039 8.95264 0.540039C10.1203 0.540039 11.216 0.761393 12.2397 1.2041C13.2635 1.64128 14.1628 2.24723 14.9375 3.02197C15.7122 3.79671 16.3182 4.69596 16.7554 5.71973C17.1981 6.74349 17.4194 7.83919 17.4194 9.00684C17.4194 10.1745 17.1981 11.2702 16.7554 12.2939C16.3182 13.3122 15.7122 14.2114 14.9375 14.9917C14.1628 15.7664 13.2635 16.3724 12.2397 16.8096C11.216 17.2523 10.1203 17.4736 8.95264 17.4736ZM6.16357 12.4932C6.36279 12.4932 6.53158 12.4268 6.66992 12.2939L8.96094 9.98633L11.2603 12.2939C11.3875 12.4268 11.5508 12.4932 11.75 12.4932C11.9437 12.4932 12.1069 12.4268 12.2397 12.2939C12.3726 12.1556 12.439 11.9924 12.439 11.8042C12.439 11.5994 12.3726 11.4362 12.2397 11.3145L9.93213 9.01514L12.248 6.70752C12.3809 6.56917 12.4473 6.40592 12.4473 6.21777C12.4473 6.02962 12.3809 5.86914 12.248 5.73633C12.1152 5.60352 11.9548 5.53711 11.7666 5.53711C11.584 5.53711 11.4263 5.60352 11.2935 5.73633L8.96094 8.05225L6.64502 5.74463C6.50667 5.61735 6.34619 5.55371 6.16357 5.55371C5.97542 5.55371 5.81494 5.62012 5.68213 5.75293C5.54932 5.88021 5.48291 6.04069 5.48291 6.23438C5.48291 6.41699 5.54932 6.57747 5.68213 6.71582L7.98975 9.01514L5.68213 11.3228C5.54932 11.4556 5.48291 11.616 5.48291 11.8042C5.48291 11.9924 5.54932 12.1556 5.68213 12.2939C5.81494 12.4268 5.97542 12.4932 6.16357 12.4932Z" fill="#3C3C43" fill-opacity="0.6"/>
</svg>
