<svg width="28" height="19" viewBox="0 0 28 19" fill="none" xmlns="http://www.w3.org/2000/svg">
<path d="M5.82168 18.5488C4.69082 18.5488 3.70351 18.3262 2.85976 17.8809C2.01601 17.4355 1.35976 16.8262 0.891014 16.0527C0.428123 15.2793 0.196678 14.3945 0.196678 13.3984C0.196678 12.584 0.360741 11.8369 0.688866 11.1572C1.02285 10.4775 1.47988 9.89746 2.05996 9.41699C2.6459 8.93066 3.32265 8.5791 4.09023 8.3623C4.20156 7.23145 4.49746 6.18555 4.97793 5.22461C5.46426 4.25781 6.09414 3.41406 6.86758 2.69336C7.64687 1.97266 8.53164 1.41016 9.52187 1.00586C10.5121 0.601562 11.5609 0.399414 12.6684 0.399414C13.8285 0.399414 14.9008 0.595703 15.8852 0.988281C16.8695 1.375 17.7426 1.93164 18.5043 2.6582C19.2719 3.38477 19.9076 4.25488 20.4115 5.26855C21.4369 5.2627 22.3861 5.42676 23.2592 5.76074C24.1322 6.08887 24.891 6.55176 25.5355 7.14941C26.1801 7.74707 26.6811 8.4502 27.0385 9.25879C27.3959 10.0615 27.5746 10.9375 27.5746 11.8867C27.5746 12.8184 27.4018 13.6885 27.0561 14.4971C26.7104 15.3057 26.224 16.0117 25.5971 16.6152C24.976 17.2246 24.2494 17.6992 23.4174 18.0391C22.5912 18.3789 21.6947 18.5488 20.7279 18.5488H5.82168Z" fill="#007AFF"/>
</svg>
