<svg width="28" height="19" viewBox="0 0 28 19" fill="none" xmlns="http://www.w3.org/2000/svg">
<path d="M5.82171 18.5488C4.69086 18.5488 3.70355 18.3262 2.8598 17.8809C2.01605 17.4355 1.3598 16.8262 0.89105 16.0527C0.42816 15.2793 0.196714 14.3945 0.196714 13.3984C0.196714 12.584 0.360777 11.8369 0.688902 11.1572C1.02289 10.4775 1.47992 9.89746 2.06 9.41699C2.64593 8.93066 3.32269 8.5791 4.09027 8.3623C4.2016 7.23145 4.4975 6.18555 4.97796 5.22461C5.46429 4.25781 6.09418 3.41406 6.86761 2.69336C7.64691 1.97266 8.53168 1.41016 9.52191 1.00586C10.5121 0.601562 11.561 0.399414 12.6684 0.399414C13.8286 0.399414 14.9008 0.595703 15.8852 0.988281C16.8696 1.375 17.7426 1.93164 18.5043 2.6582C19.2719 3.38477 19.9077 4.25488 20.4116 5.26855C21.4369 5.2627 22.3862 5.42676 23.2592 5.76074C24.1323 6.08887 24.8911 6.55176 25.5356 7.14941C26.1801 7.74707 26.6811 8.4502 27.0385 9.25879C27.3959 10.0615 27.5746 10.9375 27.5746 11.8867C27.5746 12.8184 27.4018 13.6885 27.0561 14.4971C26.7104 15.3057 26.2241 16.0117 25.5971 16.6152C24.976 17.2246 24.2494 17.6992 23.4174 18.0391C22.5912 18.3789 21.6948 18.5488 20.728 18.5488H5.82171Z" fill="#999999"/>
</svg>
