<svg width="24" height="25" viewBox="0 0 24 25" fill="none" xmlns="http://www.w3.org/2000/svg">
<path d="M9.66858 5.5791V1.66797C9.66858 1.41016 9.7594 1.19043 9.94104 1.00879C10.1285 0.827148 10.3512 0.736328 10.609 0.736328C10.861 0.736328 11.0778 0.827148 11.2594 1.00879C11.441 1.19043 11.5319 1.41016 11.5319 1.66797V5.5791H9.66858ZM2.61975 15.0273C1.85217 15.0273 1.25452 14.8193 0.826782 14.4033C0.404907 13.9873 0.19397 13.4014 0.19397 12.6455V6.51953C0.19397 5.76367 0.404907 5.18066 0.826782 4.77051C1.25452 4.35449 1.85217 4.14648 2.61975 4.14648H17.2272C17.7194 4.14648 18.1119 4.21973 18.4049 4.36621C18.7037 4.50684 19.0026 4.71777 19.3014 4.99902L22.2457 7.80273C22.8727 8.40625 23.1832 9.00391 23.1774 9.5957C23.1715 10.1875 22.8639 10.7764 22.2545 11.3623L19.3014 14.166C19.0026 14.4531 18.7037 14.667 18.4049 14.8076C18.1061 14.9482 17.7106 15.0186 17.2184 15.0186L2.61975 15.0273ZM9.66858 14.2803H11.5319V24.2734H9.66858V14.2803ZM5.37073 23.6318C5.37073 23.374 5.46155 23.1543 5.64319 22.9727C5.82483 22.791 6.04163 22.7002 6.29358 22.7002H14.9156C15.1793 22.7002 15.402 22.791 15.5836 22.9727C15.7653 23.1543 15.8561 23.374 15.8561 23.6318C15.8561 23.8838 15.7623 24.1006 15.5748 24.2822C15.3932 24.4697 15.1735 24.5635 14.9156 24.5635H6.29358C6.04163 24.5635 5.82483 24.4697 5.64319 24.2822C5.46155 24.1006 5.37073 23.8838 5.37073 23.6318Z" fill="#999999"/>
</svg>
