<svg width="128" height="156" viewBox="0 0 128 156" fill="none" xmlns="http://www.w3.org/2000/svg">
<path fill-rule="evenodd" clip-rule="evenodd" d="M66.1738 0C32.0268 0 4.34624 27.7581 4.34624 61.9992C4.34624 96.2419 32.0268 124 66.1738 124C100.319 124 128 96.2419 128 61.9992C128 27.7581 100.319 0 66.1738 0Z" fill="url(#paint0_radial_1_2394)"/>
<path fill-rule="evenodd" clip-rule="evenodd" d="M21.8393 54.4862C38.2692 55.5928 46.9748 39.5927 47.3207 30.278C47.3865 27.6013 51.4392 27.896 50.9572 30.5911C49.9653 39.9886 55.5394 56.3233 71.3205 58.4045C91.2139 61.0274 99.5719 38.3756 95.0968 29.6456C92.4475 24.478 9.28313 18.9497 7.34553 21.9825C1.38115 31.3155 1.82042 53.1371 21.8393 54.4862Z" fill="url(#paint1_linear_1_2394)"/>
<path d="M38.9377 65.1199C38.1143 65.8889 36.8225 65.8428 36.0557 65.0156C35.289 64.1882 35.3348 62.8945 36.1598 62.1239C38.4847 59.9461 41.4492 58.3084 44.6831 57.8097C47.5344 57.3707 50.5785 57.8159 53.563 59.5409C54.538 60.1026 54.8732 61.3504 54.3146 62.3281C53.7544 63.3042 52.5102 63.6419 51.5352 63.0802C49.4353 61.8662 47.2941 61.553 45.2907 61.8616C42.9169 62.2267 40.7024 63.4654 38.9377 65.1199Z" fill="#2B2A29"/>
<path d="M82.3506 44.8202C83.1007 43.9807 84.3877 43.9085 85.2249 44.6591C86.0622 45.4111 86.1341 46.7019 85.3841 47.5413C83.2583 49.9218 80.4513 51.8158 77.2786 52.5969C74.4671 53.2907 71.3922 53.1203 68.2746 51.6699C67.2522 51.1973 66.8054 49.9817 67.2767 48.9565C67.7496 47.9297 68.9618 47.4815 69.9842 47.9557C72.1913 48.9825 74.3476 49.1069 76.3036 48.6249C78.6438 48.0494 80.7405 46.6205 82.3506 44.8202Z" fill="#444545"/>
<path d="M32.6951 40.0915C33.335 39.163 34.6037 38.9296 35.5297 39.5713C36.4556 40.2128 36.6883 41.4851 36.0484 42.4137C34.2303 45.0412 31.6759 47.2712 28.6225 48.4392C25.9227 49.4736 22.851 49.6839 19.571 48.6296C18.4997 48.2843 17.9105 47.1331 18.2533 46.0589C18.5977 44.9844 19.7456 44.3936 20.817 44.7374C23.1264 45.4802 25.2814 45.3343 27.17 44.6115C29.4183 43.7504 31.3222 42.076 32.6951 40.0915Z" fill="#444545"/>
<path d="M40.4944 139.346L27.6503 111.306C26.9623 109.804 25.8669 108.617 24.557 107.808C22.33 106.431 19.482 106.152 16.9301 107.321L15.9056 107.791C11.1794 109.956 9.09652 115.561 11.2605 120.285L23.5479 147.109C25.5584 151.499 30.7669 153.434 35.1557 151.424L36.1803 150.954C39.71 149.337 41.6126 145.653 41.1906 141.986C41.0883 141.096 40.888 140.205 40.4944 139.346Z" fill="#007AFF"/>
<path fill-rule="evenodd" clip-rule="evenodd" d="M58.2785 95.0815C58.1824 95.1201 58.0869 95.1611 57.992 95.2045L41.8493 102.598C41.5219 98.144 41.3129 95.4321 38.8333 90.0183C38.0896 88.3647 36.8012 86.8863 34.9519 85.5724C33.7648 84.7482 32.366 83.9799 30.7948 83.288C28.4855 82.2695 26.0418 83.1783 25.0727 85.5188C24.1556 87.7528 25.0945 89.8087 25.8504 91.4641L25.851 91.4655C26.1815 92.1294 26.6322 93.3272 26.9646 94.2106C27.0351 94.3978 27.1002 94.5709 27.1577 94.7218C27.3892 98.5783 26.6605 100.896 25.7355 103.791C25.3558 104.979 24.9368 106.29 24.559 107.81C25.7824 108.659 26.8271 109.869 27.515 111.371L40.3583 139.412C40.7518 140.271 40.9713 141.153 41.1016 142.03L68.5703 129.449C69.293 129.09 69.7686 128.256 69.7148 127.357L68.5108 103.227L83.0027 96.5894C85.9317 95.2479 87.2186 91.7858 85.877 88.8568C84.5355 85.9278 81.0735 84.6409 78.1444 85.9824L58.2785 95.0815Z" fill="url(#paint2_radial_1_2394)"/>
<defs>
<radialGradient id="paint0_radial_1_2394" cx="0" cy="0" r="1" gradientUnits="userSpaceOnUse" gradientTransform="translate(62.4206 36.0261) rotate(180) scale(195.981 196.529)">
<stop stop-color="#FFE28E"/>
<stop offset="1" stop-color="#F9B86C"/>
</radialGradient>
<linearGradient id="paint1_linear_1_2394" x1="43.0567" y1="90.2129" x2="53.1429" y2="14.5891" gradientUnits="userSpaceOnUse">
<stop stop-color="#1E1E20"/>
<stop offset="1" stop-color="#3B3B3B"/>
</linearGradient>
<radialGradient id="paint2_radial_1_2394" cx="0" cy="0" r="1" gradientUnits="userSpaceOnUse" gradientTransform="translate(56.9796 102.18) rotate(65.3911) scale(29.6191 31.8206)">
<stop stop-color="white"/>
<stop offset="1" stop-color="#ECECEC"/>
</radialGradient>
</defs>
</svg>
