<svg width="104" height="105" viewBox="0 0 104 105" fill="none" xmlns="http://www.w3.org/2000/svg">
<g filter="url(#filter0_d_159_1725)">
<path fill-rule="evenodd" clip-rule="evenodd" d="M51.9995 6C28.8039 6 10 25.028 10 48.5C10 71.972 28.8039 91 51.9995 91C75.1961 91 94 71.972 94 48.5C94 25.028 75.1961 6 51.9995 6Z" fill="url(#paint0_radial_159_1725)"/>
<path fill-rule="evenodd" clip-rule="evenodd" d="M59.5237 35.7209C60.0949 46.7436 46.7221 60.1629 32.4055 57.3612C17.9321 54.53 14.1615 36.8551 20.8338 27.177C21.4618 26.2658 59.4405 34.1007 59.5237 35.7209Z" fill="#282829"/>
<path fill-rule="evenodd" clip-rule="evenodd" d="M34.8867 57.5998C30.6742 57.0611 22.9594 54.2394 28.387 49.9943C30.1756 48.595 32.7332 47.6881 35.8978 48.0931C38.9552 48.4835 41.1802 49.909 42.7142 51.5335C48.3143 57.4672 39.2181 58.1521 34.8867 57.5998Z" fill="url(#paint1_linear_159_1725)"/>
<path d="M60.575 35.6684C60.6392 36.9172 60.5392 38.187 60.292 39.4559C59.3852 44.0882 56.4919 48.7762 52.4162 52.3681C48.3447 55.9536 43.0727 58.466 37.4 58.7605C35.6935 58.8489 33.9534 58.7374 32.2059 58.3955C29.4979 57.8663 27.1381 56.8405 25.1286 55.4549C21.64 53.0499 19.2244 49.5654 17.8756 45.7106C16.5353 41.8767 16.2491 37.6705 17.0066 33.7935C17.5179 31.1791 18.5069 28.7036 19.9703 26.5815C20.1954 26.2564 20.5636 26.085 21.0613 26.0586C22.8383 25.9671 31.8103 27.5926 40.6614 29.4842C49.5504 31.3843 58.4088 33.5811 59.9291 34.6299C60.332 34.9088 60.5529 35.2528 60.575 35.6684ZM58.2257 39.0529C58.4119 38.0955 58.5045 37.1466 58.4898 36.2186C56.6077 35.2739 48.4699 33.3043 40.2248 31.5421C31.9271 29.7694 23.6021 28.2291 21.4443 28.1576C20.2923 29.9461 19.5011 32.0113 19.0729 34.1965C18.3838 37.721 18.6437 41.5401 19.8599 45.0182C21.0676 48.4733 23.2212 51.5874 26.3228 53.7253C28.0975 54.9488 30.1923 55.8568 32.6089 56.3291C34.1922 56.6396 35.7609 56.7405 37.2927 56.6606C42.4573 56.3934 47.281 54.0841 51.0243 50.7868C54.7623 47.4938 57.4083 43.2328 58.2257 39.0529Z" fill="#FED788"/>
<path d="M22.6059 31.827C22.7669 31.0694 23.5118 30.5855 24.2693 30.7454L52.51 36.7518C53.2675 36.9127 53.7514 37.6576 53.5916 38.4151C52.369 43.3399 21.455 36.4109 22.6059 31.827Z" fill="#E5E4E5"/>
<path d="M60.4154 19.8767C61.1845 19.9587 61.7421 20.6489 61.661 21.419C61.579 22.1881 60.8878 22.7468 60.1187 22.6647C58.0661 22.4437 56.3723 22.5952 54.9667 22.975C54.5891 23.0771 54.2324 23.1959 53.8946 23.3275C54.1377 23.4569 54.3765 23.5905 54.6111 23.7284C55.7316 24.3848 56.7552 25.1297 57.6779 25.9335C58.2628 26.4427 58.3249 27.3296 57.8157 27.9156C57.3065 28.5006 56.4196 28.5616 55.8336 28.0524C55.014 27.3381 54.1324 26.6931 53.195 26.1429C52.2976 25.6168 51.3349 25.1634 50.3092 24.8036C50.0556 24.7141 49.8242 24.5521 49.6506 24.3206C49.1866 23.702 49.3118 22.8246 49.9304 22.3606C51.0857 21.4948 52.4964 20.7352 54.2419 20.2638C55.9504 19.8019 57.9841 19.6147 60.4154 19.8767Z" fill="#2B2A29"/>
<path d="M24.3834 15.8445C23.6438 15.614 23.2314 14.8281 23.4618 14.0885C23.6912 13.3489 24.4781 12.9354 25.2177 13.1658C27.5501 13.8918 29.3418 14.8744 30.7295 15.9812C32.1445 17.1112 33.1366 18.3684 33.851 19.6215C34.2329 20.2937 33.9972 21.1501 33.3249 21.531C33.0757 21.673 32.8011 21.7288 32.5349 21.7098C31.4544 21.6351 30.3887 21.6678 29.3502 21.7939C28.2561 21.9276 27.1892 22.1675 26.1667 22.4915C25.427 22.7251 24.637 22.3147 24.4045 21.5751C24.1719 20.8356 24.5812 20.0464 25.3209 19.8129C26.5023 19.4384 27.7364 19.1616 29.0105 19.006H29.0157C29.284 18.9733 29.5533 18.9471 29.8248 18.9249C29.568 18.6703 29.2892 18.42 28.9841 18.1769C27.849 17.271 26.3571 16.4589 24.3834 15.8445Z" fill="#2B2A29"/>
</g>
<defs>
<filter id="filter0_d_159_1725" x="0" y="0" width="104" height="105" filterUnits="userSpaceOnUse" color-interpolation-filters="sRGB">
<feFlood flood-opacity="0" result="BackgroundImageFix"/>
<feColorMatrix in="SourceAlpha" type="matrix" values="0 0 0 0 0 0 0 0 0 0 0 0 0 0 0 0 0 0 127 0" result="hardAlpha"/>
<feOffset dy="4"/>
<feGaussianBlur stdDeviation="5"/>
<feComposite in2="hardAlpha" operator="out"/>
<feColorMatrix type="matrix" values="0 0 0 0 0 0 0 0 0 0 0 0 0 0 0 0 0 0 0.1 0"/>
<feBlend mode="normal" in2="BackgroundImageFix" result="effect1_dropShadow_159_1725"/>
<feBlend mode="normal" in="SourceGraphic" in2="effect1_dropShadow_159_1725" result="shape"/>
</filter>
<radialGradient id="paint0_radial_159_1725" cx="0" cy="0" r="1" gradientUnits="userSpaceOnUse" gradientTransform="translate(47.7792 34.8494) rotate(180) scale(133.133 134.722)">
<stop stop-color="#FFE28E"/>
<stop offset="1" stop-color="#F9B86C"/>
</radialGradient>
<linearGradient id="paint1_linear_159_1725" x1="36.3723" y1="48.7192" x2="34.4617" y2="67.7713" gradientUnits="userSpaceOnUse">
<stop stop-color="#EE7B78"/>
<stop offset="1" stop-color="#65221D"/>
</linearGradient>
</defs>
</svg>
