<svg width="17" height="18" viewBox="0 0 17 18" fill="none" xmlns="http://www.w3.org/2000/svg">
<g clip-path="url(#clip0_308_1839)">
<path d="M8.35314 1.30812C12.2555 1.30812 14.8827 3.87081 14.8827 7.71867V13.915C15.0836 14.0374 15.3 14.0986 15.524 14.0986C16.2427 14.0986 16.7064 13.6855 16.7064 13.0277L16.714 9.84534C16.714 9.37103 16.4977 8.98085 16.1809 8.81259V7.71101C16.1809 3.07522 13.0513 0 8.35314 0C3.65499 0 0.525454 3.07522 0.525454 7.71101V8.81259C0.208636 8.98085 0 9.37103 0 9.84534L0.00772726 13.0277C0.00772726 13.6855 0.463636 14.0986 1.18227 14.0986C1.40636 14.0986 1.62272 14.0374 1.82364 13.915V7.71867C1.82364 3.87081 4.4509 1.30812 8.35314 1.30812ZM2.46499 14.7642C3.04454 14.7642 3.46181 14.351 3.46181 13.785V9.13391C3.46181 8.56779 3.04454 8.15474 2.46499 8.15474C1.88545 8.15474 1.4759 8.56779 1.4759 9.13391V13.785C1.4759 14.351 1.88545 14.7642 2.46499 14.7642ZM14.2413 14.7642C14.8209 14.7642 15.2304 14.351 15.2304 13.785V9.13391C15.2304 8.56779 14.8209 8.15474 14.2413 8.15474C13.6618 8.15474 13.2445 8.56779 13.2445 9.13391V13.785C13.2445 14.351 13.6618 14.7642 14.2413 14.7642ZM14.8827 13.5402V14.6494C14.8827 15.3532 14.759 15.4373 14.1487 15.5368L9.81359 16.2941L9.9682 17.1279L14.3109 16.3706C15.1764 16.2176 15.7249 15.8045 15.7249 14.6341V13.5249L14.8827 13.5402ZM7.97452 17.9159L9.48909 17.6404C9.9527 17.564 10.2541 17.1356 10.1691 16.6766C10.0918 16.2329 9.65906 15.9269 9.19545 16.0034L7.68863 16.2788C7.22499 16.3553 6.92363 16.7837 7.00863 17.2427C7.0859 17.6864 7.51863 17.9924 7.97452 17.9159Z" fill="#969696"/>
</g>
<defs>
<clipPath id="clip0_308_1839">
<rect width="17" height="18" fill="white"/>
</clipPath>
</defs>
</svg>
