<svg width="28" height="25" viewBox="0 0 28 25" fill="none" xmlns="http://www.w3.org/2000/svg">
<path d="M11.115 22.7529H17.285V16.0908C17.285 15.8389 17.2088 15.6367 17.0565 15.4844C16.91 15.332 16.7108 15.2559 16.4588 15.2559H11.95C11.6981 15.2559 11.4959 15.332 11.3436 15.4844C11.1912 15.6367 11.115 15.8389 11.115 16.0908V22.7529ZM4.13653 22.1641V13.0586L13.4881 5.22754C13.7108 5.03418 13.9451 4.9375 14.1912 4.9375C14.4373 4.93164 14.6746 5.02832 14.9031 5.22754L24.2635 13.0762V22.1641C24.2635 22.9434 24.035 23.5527 23.5779 23.9922C23.1209 24.4316 22.494 24.6514 21.6971 24.6514H6.69415C5.89728 24.6514 5.27032 24.4316 4.81329 23.9922C4.36212 23.5527 4.13653 22.9434 4.13653 22.1641ZM1.64923 12.7949C1.33282 12.7949 1.0838 12.7012 0.902159 12.5137C0.720518 12.3203 0.629698 12.0977 0.629698 11.8457C0.629698 11.7051 0.661924 11.5674 0.726377 11.4326C0.790831 11.292 0.89044 11.166 1.02521 11.0547L12.7322 1.22852C13.1893 0.841797 13.6785 0.648438 14.2 0.648438C14.7215 0.648438 15.2108 0.841797 15.6678 1.22852L27.3748 11.0547C27.5096 11.166 27.6092 11.292 27.6736 11.4326C27.7381 11.5674 27.7703 11.7051 27.7703 11.8457C27.7703 12.0977 27.6795 12.3203 27.4979 12.5137C27.3221 12.7012 27.0731 12.7949 26.7508 12.7949C26.5984 12.7949 26.4549 12.7598 26.3201 12.6895C26.1912 12.6191 26.0652 12.5342 25.9422 12.4346L14.6834 2.98633C14.5311 2.85742 14.3699 2.79297 14.2 2.79297C14.0301 2.79297 13.869 2.85742 13.7166 2.98633L2.45782 12.4346C2.33478 12.5342 2.20587 12.6191 2.0711 12.6895C1.9422 12.7598 1.80157 12.7949 1.64923 12.7949ZM21.5213 6.72168V3.98828C21.5213 3.75977 21.5916 3.57812 21.7322 3.44336C21.8787 3.30273 22.0662 3.23242 22.2947 3.23242H23.6834C23.9178 3.23242 24.1053 3.30273 24.2459 3.44336C24.3865 3.57812 24.4568 3.75977 24.4568 3.98828V9.18262L21.5213 6.72168Z" fill="#007AFF"/>
</svg>
