<svg width="26" height="25" viewBox="0 0 26 25" fill="none" xmlns="http://www.w3.org/2000/svg">
<path d="M7.22559 24.1699C6.91504 24.1699 6.6748 24.0674 6.50488 23.8623C6.33496 23.6631 6.25 23.3965 6.25 23.0625V19.7842H5.48535C4.43066 19.7842 3.52539 19.582 2.76953 19.1777C2.01367 18.7793 1.43359 18.1992 1.0293 17.4375C0.625 16.6758 0.422852 15.7588 0.422852 14.6865V5.69531C0.422852 4.62305 0.62207 3.70605 1.02051 2.94434C1.4248 2.17676 2.00781 1.59082 2.76953 1.18652C3.53125 0.782227 4.4541 0.580078 5.53809 0.580078H20.4443C21.5342 0.580078 22.46 0.782227 23.2217 1.18652C23.9834 1.59082 24.5635 2.17676 24.9619 2.94434C25.3662 3.70605 25.5684 4.62305 25.5684 5.69531V14.6865C25.5684 15.7529 25.3662 16.6699 24.9619 17.4375C24.5635 18.1992 23.9834 18.7793 23.2217 19.1777C22.46 19.582 21.5342 19.7842 20.4443 19.7842H12.6133L8.46484 23.5107C8.21289 23.7334 7.99609 23.8975 7.81445 24.0029C7.63281 24.1143 7.43652 24.1699 7.22559 24.1699ZM7.44531 11.8477C7.75586 11.8477 8.03418 11.7715 8.28027 11.6191C8.53223 11.4668 8.73438 11.2676 8.88672 11.0215C9.03906 10.7695 9.11523 10.4883 9.11523 10.1777C9.11523 9.86719 9.03906 9.58887 8.88672 9.34277C8.73438 9.09082 8.53223 8.88867 8.28027 8.73633C8.03418 8.58398 7.75586 8.50781 7.44531 8.50781C7.14062 8.50781 6.8623 8.58398 6.61035 8.73633C6.3584 8.88867 6.15625 9.09082 6.00391 9.34277C5.85156 9.58887 5.77539 9.86719 5.77539 10.1777C5.77539 10.4883 5.85156 10.7695 6.00391 11.0215C6.15625 11.2676 6.3584 11.4668 6.61035 11.6191C6.8623 11.7715 7.14062 11.8477 7.44531 11.8477ZM13 11.8477C13.3047 11.8477 13.583 11.7715 13.835 11.6191C14.0928 11.4668 14.2949 11.2676 14.4414 11.0215C14.5879 10.7695 14.6611 10.4883 14.6611 10.1777C14.6611 9.86719 14.5879 9.58887 14.4414 9.34277C14.2949 9.09082 14.0928 8.88867 13.835 8.73633C13.583 8.58398 13.3047 8.50781 13 8.50781C12.6953 8.50781 12.417 8.58398 12.165 8.73633C11.9131 8.88867 11.7109 9.09082 11.5586 9.34277C11.4062 9.58887 11.3301 9.86719 11.3301 10.1777C11.3301 10.4883 11.4062 10.7695 11.5586 11.0215C11.7109 11.2676 11.9131 11.4668 12.165 11.6191C12.417 11.7715 12.6953 11.8477 13 11.8477ZM18.5547 11.8477C18.8652 11.8477 19.1465 11.7715 19.3984 11.6191C19.6504 11.4668 19.8496 11.2676 19.9961 11.0215C20.1484 10.7695 20.2246 10.4883 20.2246 10.1777C20.2246 9.86719 20.1484 9.58887 19.9961 9.34277C19.8496 9.09082 19.6504 8.88867 19.3984 8.73633C19.1465 8.58398 18.8652 8.50781 18.5547 8.50781C18.25 8.50781 17.9717 8.58398 17.7197 8.73633C17.4678 8.88867 17.2656 9.09082 17.1133 9.34277C16.9668 9.58887 16.8936 9.86719 16.8936 10.1777C16.8936 10.4883 16.9668 10.7695 17.1133 11.0215C17.2656 11.2676 17.4678 11.4668 17.7197 11.6191C17.9717 11.7715 18.25 11.8477 18.5547 11.8477Z" fill="#007AFF"/>
</svg>
