<svg width="84" height="84" viewBox="0 0 84 84" fill="none" xmlns="http://www.w3.org/2000/svg">
<path d="M83.5 30.3998V20.9998C83.5 19.3998 82.2 17.9998 80.5 17.9998H71.8C70 17.9998 68.6 16.3998 68.9 14.6998L70.3 3.59981C70.5 1.79981 69.1 0.299805 67.4 0.299805H57.1C55.6 0.299805 54.3 1.39981 54.2 2.89981L52.6 15.4998C52.4 16.9998 51.2 18.0998 49.7 18.0998H41C39.2 18.0998 37.8 16.4998 38.1 14.7998L39.5 3.69981C39.7 1.89981 38.3 0.399805 36.6 0.399805H26.2C24.7 0.399805 23.4 1.49981 23.3 2.99981L21.7 15.5998C21.5 17.0998 20.3 18.1998 18.8 18.1998H7.39999C5.79999 18.1998 4.39999 19.4998 4.39999 21.1998V30.6998C4.39999 32.2998 5.69999 33.6998 7.39999 33.6998H16.2C18 33.6998 19.4 35.2998 19.1 36.9998L17.7 47.9998C17.5 49.4998 16.3 50.5998 14.8 50.5998H3.39999C1.79999 50.5998 0.399994 51.8998 0.399994 53.5998V62.9998C0.399994 64.5998 1.69999 65.9998 3.39999 65.9998H12.1C13.9 65.9998 15.3 67.5998 15 69.2998L13.6 80.3998C13.4 82.1998 14.8 83.6998 16.5 83.6998H26.8C28.3 83.6998 29.6 82.5998 29.7 81.0998L31.3 68.4998C31.5 66.9998 32.7 65.8998 34.2 65.8998H43C44.8 65.8998 46.2 67.4998 45.9 69.1998L44.5 80.2998C44.3 82.0998 45.7 83.5998 47.4 83.5998H57.7C59.2 83.5998 60.5 82.4998 60.6 80.9998L62.2 68.3998C62.4 66.8998 63.6 65.7998 65.1 65.7998H76.4C78 65.7998 79.4 64.4998 79.4 62.7998V53.2998C79.4 51.6998 78.1 50.2998 76.4 50.2998H67.8C66 50.2998 64.6 48.6998 64.9 46.9998L66.3 35.9998C66.5 34.4998 67.7 33.3998 69.2 33.3998H80.5C82.2 33.3998 83.5 32.0998 83.5 30.3998ZM45.7 50.5998H37C35.2 50.5998 33.8 48.9998 34.1 47.2998L35.4 35.9998C35.6 34.4998 36.8 33.3998 38.3 33.3998H47C48.8 33.3998 50.2 34.9998 49.9 36.6998L48.6 47.9998C48.4 49.4998 47.1 50.5998 45.7 50.5998Z" fill="#007AFF"/>
</svg>
