<svg width="374" height="218" viewBox="0 0 374 218" fill="none" xmlns="http://www.w3.org/2000/svg">
<g filter="url(#filter0_d_449_2432)">
<rect x="10" y="6" width="354" height="198" rx="16" fill="#F3F4F7"/>
</g>
<path d="M212.382 173.157H214.575C214.575 174.37 214.473 175.537 214.269 176.659C214.065 177.77 213.703 178.829 213.181 179.838C212.66 180.847 211.929 181.787 210.988 182.66C210.048 183.533 208.835 184.337 207.35 185.074L206.16 183.323C207.373 182.722 208.382 182.076 209.186 181.385C209.991 180.694 210.626 179.946 211.09 179.141C211.555 178.336 211.884 177.464 212.076 176.523C212.28 175.582 212.382 174.557 212.382 173.446V173.157ZM207.112 173.157H213.504V174.959H207.112V173.157ZM212.365 177.016V178.75L206.585 179.277L206.296 177.373L212.365 177.016ZM216.904 171.644H219.165V187.386H216.904V171.644ZM225.488 180.518H227.766V186.927H225.488V180.518ZM232.764 171.644H235.042V187.386H232.764V171.644ZM221.901 181.47L221.646 179.634C222.609 179.634 223.663 179.628 224.808 179.617C225.953 179.606 227.12 179.566 228.31 179.498C229.5 179.43 230.656 179.322 231.778 179.175L231.897 180.807C230.752 181.022 229.591 181.175 228.412 181.266C227.245 181.357 226.106 181.413 224.995 181.436C223.896 181.459 222.864 181.47 221.901 181.47ZM229.619 182.235H233.206V183.935H229.619V182.235ZM226.729 172.307C227.5 172.307 228.185 172.443 228.786 172.715C229.398 172.987 229.874 173.367 230.214 173.854C230.554 174.33 230.724 174.885 230.724 175.52C230.724 176.166 230.554 176.733 230.214 177.22C229.874 177.707 229.398 178.087 228.786 178.359C228.185 178.62 227.5 178.75 226.729 178.75C225.958 178.75 225.267 178.62 224.655 178.359C224.054 178.087 223.578 177.707 223.227 177.22C222.887 176.733 222.717 176.166 222.717 175.52C222.717 174.885 222.887 174.33 223.227 173.854C223.578 173.367 224.054 172.987 224.655 172.715C225.267 172.443 225.958 172.307 226.729 172.307ZM226.729 174.007C226.366 174.007 226.038 174.069 225.743 174.194C225.46 174.307 225.239 174.477 225.08 174.704C224.921 174.931 224.842 175.203 224.842 175.52C224.842 175.849 224.921 176.126 225.08 176.353C225.239 176.58 225.46 176.75 225.743 176.863C226.038 176.976 226.366 177.033 226.729 177.033C227.103 177.033 227.426 176.976 227.698 176.863C227.981 176.75 228.202 176.58 228.361 176.353C228.531 176.126 228.616 175.849 228.616 175.52C228.616 175.203 228.531 174.931 228.361 174.704C228.202 174.477 227.981 174.307 227.698 174.194C227.426 174.069 227.103 174.007 226.729 174.007ZM239.002 178.92H250.069V180.705H239.002V178.92ZM237.336 183.663H251.599V185.499H237.336V183.663ZM239.002 172.936H249.95V174.772H241.246V179.668H239.002V172.936ZM267.753 171.661H270.031V187.403H267.753V171.661ZM269.538 177.509H272.309V179.379H269.538V177.509ZM258.182 172.885H260.426V176.727H263.588V172.885H265.832V183.748H258.182V172.885ZM260.426 178.478V181.946H263.588V178.478H260.426ZM273.344 183.833H287.607V185.669H273.344V183.833ZM279.328 180.841H281.572V184.564H279.328V180.841ZM274.959 172.664H285.992V177.917H277.22V180.552H274.976V176.149H283.748V174.466H274.959V172.664ZM274.976 179.668H286.349V181.47H274.976V179.668ZM299.03 171.627H301.308V187.369H299.03V171.627ZM300.73 177.662H303.501V179.515H300.73V177.662ZM294.899 173.259H297.126C297.126 174.834 296.899 176.325 296.446 177.73C296.004 179.135 295.267 180.427 294.236 181.606C293.216 182.773 291.833 183.793 290.088 184.666L288.813 182.949C290.196 182.235 291.335 181.43 292.23 180.535C293.137 179.64 293.805 178.625 294.236 177.492C294.678 176.347 294.899 175.072 294.899 173.667V173.259ZM289.68 173.259H296.072V175.078H289.68V173.259ZM315.468 171.644H317.729V187.386H315.468V171.644ZM310.827 173.276H313.054C313.054 174.477 312.935 175.628 312.697 176.727C312.47 177.815 312.085 178.841 311.541 179.804C311.008 180.767 310.271 181.663 309.331 182.49C308.401 183.306 307.24 184.054 305.846 184.734L304.656 182.949C306.174 182.212 307.381 181.402 308.277 180.518C309.183 179.623 309.835 178.614 310.232 177.492C310.628 176.359 310.827 175.089 310.827 173.684V173.276ZM305.506 173.276H311.881V175.078H305.506V173.276ZM338.332 179.889C338.332 180.127 338.243 180.331 338.066 180.503L333.808 184.745C333.636 184.916 333.44 185.002 333.218 185.002C332.986 185.002 332.792 184.927 332.637 184.778C332.488 184.623 332.413 184.432 332.413 184.205C332.413 184.089 332.432 183.981 332.471 183.881C332.515 183.782 332.576 183.696 332.654 183.624L333.882 182.371L336.414 180.08L336.696 180.569L334.289 180.719H326.802C326.547 180.719 326.342 180.641 326.188 180.486C326.033 180.331 325.955 180.132 325.955 179.889C325.955 179.645 326.033 179.446 326.188 179.291C326.342 179.131 326.547 179.05 326.802 179.05H334.289L336.696 179.208L336.414 179.698L333.882 177.407L332.654 176.153C332.576 176.081 332.515 175.996 332.471 175.896C332.432 175.796 332.413 175.686 332.413 175.564C332.413 175.337 332.488 175.149 332.637 175C332.792 174.845 332.986 174.767 333.218 174.767C333.44 174.767 333.636 174.856 333.808 175.033L338.066 179.274C338.243 179.446 338.332 179.651 338.332 179.889Z" fill="#007AFF"/>
<path d="M50.288 40.8661H57.712V44.2901H50.288V40.8661ZM43.472 35.5541C44.9653 35.5541 46.2987 35.8634 47.472 36.4821C48.6667 37.0794 49.6053 37.9114 50.288 38.9781C50.9707 40.0234 51.312 41.2394 51.312 42.6261C51.312 43.9914 50.9707 45.2074 50.288 46.2741C49.6053 47.3407 48.6667 48.1834 47.472 48.8021C46.2987 49.3994 44.9653 49.6981 43.472 49.6981C42 49.6981 40.6667 49.3994 39.472 48.8021C38.2987 48.1834 37.3707 47.3407 36.688 46.2741C36.0053 45.2074 35.664 43.9914 35.664 42.6261C35.664 41.2394 36.0053 40.0234 36.688 38.9781C37.3707 37.9114 38.2987 37.0794 39.472 36.4821C40.6667 35.8634 42 35.5541 43.472 35.5541ZM43.472 39.0741C42.7467 39.0741 42.096 39.2127 41.52 39.4901C40.9653 39.7674 40.528 40.1727 40.208 40.7061C39.888 41.2394 39.728 41.8794 39.728 42.6261C39.728 43.3514 39.888 43.9807 40.208 44.5141C40.528 45.0474 40.9653 45.4527 41.52 45.7301C42.096 46.0074 42.7467 46.1461 43.472 46.1461C44.1973 46.1461 44.8373 46.0074 45.392 45.7301C45.968 45.4527 46.416 45.0474 46.736 44.5141C47.056 43.9807 47.216 43.3514 47.216 42.6261C47.216 41.8794 47.056 41.2394 46.736 40.7061C46.416 40.1727 45.968 39.7674 45.392 39.4901C44.8373 39.2127 44.1973 39.0741 43.472 39.0741ZM55.824 34.3381H60.112V50.2421H55.824V34.3381ZM40.432 51.5541H44.656V54.3381H55.888V51.5541H60.112V63.6501H40.432V51.5541ZM44.656 57.6021V60.2581H55.888V57.6021H44.656ZM76.1735 42.1461H82.1575V45.5061H76.1735V42.1461ZM76.0135 49.5381H82.0615V52.9301H76.0135V49.5381ZM86.1895 34.3061H90.2535V63.9381H86.1895V34.3061ZM80.1095 34.9461H84.0775V62.6261H80.1095V34.9461ZM73.4215 37.7941H77.4855C77.4855 40.6101 77.1548 43.2341 76.4935 45.6661C75.8535 48.0767 74.7442 50.2954 73.1655 52.3221C71.6082 54.3487 69.4535 56.1727 66.7015 57.7941L64.3015 54.8181C66.5415 53.4741 68.3228 52.0127 69.6455 50.4341C70.9895 48.8341 71.9495 47.0741 72.5255 45.1541C73.1228 43.2127 73.4215 41.0474 73.4215 38.6581V37.7941ZM65.9975 37.7941H74.8295V41.2181H65.9975V37.7941ZM190.593 47.6181H217.409V50.6901H190.593V47.6181ZM193.601 52.1941H214.241V59.2341H197.857V61.7621H193.633V56.5461H210.049V55.0741H193.601V52.1941ZM193.633 60.8341H215.073V63.7141H193.633V60.8341ZM193.857 34.8181H214.145V41.8261H198.113V44.2261H193.921V39.1381H209.953V37.6981H193.857V34.8181ZM193.921 43.3621H214.689V46.2421H193.921V43.3621ZM42 87.8741H46.256V92.0981H42V87.8741ZM54.544 74.3381H58.8V94.5301H54.544V74.3381ZM57.328 82.7861H62.544V86.3061H57.328V82.7861ZM35.44 93.9221L34.96 90.6261C36.7307 90.6261 38.6507 90.6154 40.72 90.5941C42.8107 90.5727 44.9227 90.5087 47.056 90.4021C49.1893 90.2741 51.2587 90.0927 53.264 89.8581L53.584 92.7701C51.5147 93.1327 49.4133 93.3994 47.28 93.5701C45.1467 93.7194 43.0667 93.8154 41.04 93.8581C39.0347 93.8794 37.168 93.9007 35.44 93.9221ZM38.704 95.6821H58.8V103.97H54.544V98.9781H38.704V95.6821ZM35.696 76.4821H52.528V79.5541H35.696V76.4821ZM44.112 80.2581C46.3093 80.2581 48.0587 80.6527 49.36 81.4421C50.6827 82.2101 51.344 83.2767 51.344 84.6421C51.344 86.0074 50.6827 87.0847 49.36 87.8741C48.0587 88.6634 46.3093 89.0581 44.112 89.0581C41.936 89.0581 40.1867 88.6634 38.864 87.8741C37.5627 87.0847 36.912 86.0074 36.912 84.6421C36.912 83.2767 37.5627 82.2101 38.864 81.4421C40.1867 80.6527 41.936 80.2581 44.112 80.2581ZM44.112 83.0101C43.1093 83.0101 42.3307 83.1487 41.776 83.4261C41.2213 83.7034 40.944 84.1087 40.944 84.6421C40.944 85.1754 41.2213 85.5914 41.776 85.8901C42.3307 86.1674 43.1093 86.3061 44.112 86.3061C45.1147 86.3061 45.8933 86.1674 46.448 85.8901C47.024 85.5914 47.312 85.1754 47.312 84.6421C47.312 84.1087 47.024 83.7034 46.448 83.4261C45.8933 83.1487 45.1147 83.0101 44.112 83.0101ZM42 74.0821H46.256V77.8901H42V74.0821ZM85.1015 74.3381H89.3575V95.6181H85.1015V74.3381ZM69.6135 100.034H90.1255V103.458H69.6135V100.034ZM69.6135 93.5061H73.8695V101.442H69.6135V93.5061ZM73.2295 76.2261C74.7442 76.2261 76.1095 76.5461 77.3255 77.1861C78.5415 77.8261 79.5015 78.7114 80.2055 79.8421C80.9308 80.9727 81.2935 82.2741 81.2935 83.7461C81.2935 85.1754 80.9308 86.4661 80.2055 87.6181C79.5015 88.7487 78.5415 89.6447 77.3255 90.3061C76.1095 90.9461 74.7442 91.2661 73.2295 91.2661C71.7148 91.2661 70.3495 90.9461 69.1335 90.3061C67.9175 89.6447 66.9468 88.7487 66.2215 87.6181C65.5175 86.4661 65.1655 85.1754 65.1655 83.7461C65.1655 82.2741 65.5175 80.9727 66.2215 79.8421C66.9468 78.7114 67.9175 77.8261 69.1335 77.1861C70.3495 76.5461 71.7148 76.2261 73.2295 76.2261ZM73.2295 79.8741C72.5042 79.8741 71.8428 80.0341 71.2455 80.3541C70.6482 80.6527 70.1788 81.0901 69.8375 81.6661C69.4962 82.2207 69.3255 82.9141 69.3255 83.7461C69.3255 84.5354 69.4962 85.2181 69.8375 85.7941C70.1788 86.3487 70.6482 86.7861 71.2455 87.1061C71.8428 87.4047 72.5042 87.5541 73.2295 87.5541C73.9548 87.5541 74.6162 87.4047 75.2135 87.1061C75.8108 86.7861 76.2802 86.3487 76.6215 85.7941C76.9628 85.2181 77.1335 84.5354 77.1335 83.7461C77.1335 82.9141 76.9628 82.2207 76.6215 81.6661C76.2802 81.0901 75.8108 80.6527 75.2135 80.3541C74.6162 80.0341 73.9548 79.8741 73.2295 79.8741ZM94.155 78.7861H108.331V82.1461H94.155V78.7861ZM101.291 83.4901C102.55 83.4901 103.659 83.7887 104.619 84.3861C105.6 84.9834 106.368 85.8154 106.923 86.8821C107.499 87.9274 107.787 89.1434 107.787 90.5301C107.787 91.9167 107.499 93.1434 106.923 94.2101C106.368 95.2554 105.6 96.0767 104.619 96.6741C103.659 97.2714 102.55 97.5701 101.291 97.5701C100.032 97.5701 98.9123 97.2714 97.931 96.6741C96.9497 96.0767 96.1817 95.2554 95.627 94.2101C95.0723 93.1434 94.795 91.9167 94.795 90.5301C94.795 89.1434 95.0723 87.9274 95.627 86.8821C96.1817 85.8154 96.9497 84.9834 97.931 84.3861C98.9337 83.7887 100.054 83.4901 101.291 83.4901ZM101.291 87.0101C100.779 87.0101 100.31 87.1487 99.883 87.4261C99.4563 87.7034 99.1257 88.1087 98.891 88.6421C98.6563 89.1541 98.539 89.7834 98.539 90.5301C98.539 91.2767 98.6563 91.9167 98.891 92.4501C99.1257 92.9834 99.4563 93.3887 99.883 93.6661C100.31 93.9221 100.779 94.0501 101.291 94.0501C101.824 94.0501 102.294 93.9221 102.699 93.6661C103.104 93.3887 103.424 92.9834 103.659 92.4501C103.894 91.9167 104.011 91.2767 104.011 90.5301C104.011 89.7834 103.894 89.1541 103.659 88.6421C103.424 88.1087 103.104 87.7034 102.699 87.4261C102.294 87.1487 101.824 87.0101 101.291 87.0101ZM115.595 74.3061H119.627V103.938H115.595V74.3061ZM112.043 86.3701H116.907V89.7941H112.043V86.3701ZM109.355 74.8501H113.323V102.69H109.355V74.8501ZM99.211 75.1061H103.403V80.8981H99.211V75.1061ZM123.625 97.0581H150.473V100.514H123.625V97.0581ZM134.889 90.7221H139.113V97.8901H134.889V90.7221ZM126.441 76.1941H130.697V80.7701H143.305V76.1941H147.529V91.6181H126.441V76.1941ZM130.697 84.0981V88.2261H143.305V84.0981H130.697ZM164.71 84.2901H169.638V87.7461H164.71V84.2901ZM158.406 76.8981H161.638V81.8581C161.638 83.5434 161.521 85.1967 161.286 86.8181C161.051 88.4394 160.667 89.9647 160.134 91.3941C159.622 92.8234 158.939 94.1141 158.086 95.2661C157.254 96.3967 156.241 97.3247 155.046 98.0501L152.486 94.8501C153.595 94.1887 154.523 93.3781 155.27 92.4181C156.017 91.4581 156.625 90.4021 157.094 89.2501C157.563 88.0981 157.894 86.9034 158.086 85.6661C158.299 84.4074 158.406 83.1381 158.406 81.8581V76.8981ZM159.334 76.8981H162.502V81.6661C162.502 82.8821 162.587 84.0874 162.758 85.2821C162.95 86.4767 163.249 87.6181 163.654 88.7061C164.059 89.7941 164.593 90.7967 165.254 91.7141C165.937 92.6314 166.79 93.4207 167.814 94.0821L165.478 97.4101C164.326 96.6847 163.345 95.7674 162.534 94.6581C161.745 93.5274 161.115 92.2581 160.646 90.8501C160.177 89.4421 159.835 87.9594 159.622 86.4021C159.43 84.8447 159.334 83.2661 159.334 81.6661V76.8981ZM174.438 74.3061H178.502V103.938H174.438V74.3061ZM168.422 74.7861H172.39V102.626H168.422V74.7861ZM188.388 89.3781H192.644V97.6661H188.388V89.3781ZM199.14 89.3781H203.396V97.6661H199.14V89.3781ZM182.5 97.0581H209.348V100.514H182.5V97.0581ZM195.876 75.7781C198.009 75.7781 199.908 76.1087 201.572 76.7701C203.257 77.4314 204.569 78.3594 205.508 79.5541C206.468 80.7274 206.948 82.1247 206.948 83.7461C206.948 85.3461 206.468 86.7434 205.508 87.9381C204.569 89.1114 203.257 90.0287 201.572 90.6901C199.908 91.3514 198.009 91.6821 195.876 91.6821C193.764 91.6821 191.865 91.3514 190.18 90.6901C188.516 90.0287 187.204 89.1114 186.244 87.9381C185.284 86.7434 184.804 85.3461 184.804 83.7461C184.804 82.1247 185.284 80.7274 186.244 79.5541C187.204 78.3594 188.516 77.4314 190.18 76.7701C191.865 76.1087 193.764 75.7781 195.876 75.7781ZM195.876 79.0741C194.51 79.0741 193.305 79.2661 192.26 79.6501C191.236 80.0127 190.436 80.5354 189.86 81.2181C189.284 81.9007 188.996 82.7434 188.996 83.7461C188.996 84.7061 189.284 85.5381 189.86 86.2421C190.436 86.9247 191.236 87.4581 192.26 87.8421C193.305 88.2047 194.51 88.3861 195.876 88.3861C197.262 88.3861 198.468 88.2047 199.492 87.8421C200.537 87.4581 201.337 86.9247 201.892 86.2421C202.468 85.5381 202.756 84.7061 202.756 83.7461C202.756 82.7434 202.468 81.9007 201.892 81.2181C201.337 80.5354 200.537 80.0127 199.492 79.6501C198.468 79.2661 197.262 79.0741 195.876 79.0741Z" fill="black"/>
<path d="M114.185 37.1541H118.313C118.313 39.4367 118.121 41.6341 117.737 43.7461C117.353 45.8367 116.67 47.8314 115.689 49.7301C114.707 51.6287 113.331 53.3994 111.561 55.0421C109.79 56.6847 107.507 58.1994 104.713 59.5861L102.473 56.2901C104.755 55.1594 106.654 53.9434 108.169 52.6421C109.683 51.3407 110.878 49.9327 111.753 48.4181C112.627 46.9034 113.246 45.2607 113.609 43.4901C113.993 41.7194 114.185 39.7887 114.185 37.6981V37.1541ZM104.265 37.1541H116.297V40.5461H104.265V37.1541ZM114.153 44.4181V47.6821L103.273 48.6741L102.729 45.0901L114.153 44.4181ZM122.697 34.3061H126.953V63.9381H122.697V34.3061ZM138.854 51.0101H143.142V63.0741H138.854V51.0101ZM152.55 34.3061H156.838V63.9381H152.55V34.3061ZM132.102 52.8021L131.622 49.3461C133.436 49.3461 135.42 49.3354 137.574 49.3141C139.729 49.2927 141.926 49.2181 144.166 49.0901C146.406 48.9621 148.582 48.7594 150.694 48.4821L150.918 51.5541C148.764 51.9594 146.577 52.2474 144.358 52.4181C142.161 52.5887 140.017 52.6954 137.926 52.7381C135.857 52.7807 133.916 52.8021 132.102 52.8021ZM146.63 54.2421H153.382V57.4421H146.63V54.2421ZM141.19 35.5541C142.641 35.5541 143.932 35.8101 145.062 36.3221C146.214 36.8341 147.11 37.5487 147.75 38.4661C148.39 39.3621 148.71 40.4074 148.71 41.6021C148.71 42.8181 148.39 43.8847 147.75 44.8021C147.11 45.7194 146.214 46.4341 145.062 46.9461C143.932 47.4367 142.641 47.6821 141.19 47.6821C139.74 47.6821 138.438 47.4367 137.286 46.9461C136.156 46.4341 135.26 45.7194 134.598 44.8021C133.958 43.8847 133.638 42.8181 133.638 41.6021C133.638 40.4074 133.958 39.3621 134.598 38.4661C135.26 37.5487 136.156 36.8341 137.286 36.3221C138.438 35.8101 139.74 35.5541 141.19 35.5541ZM141.19 38.7541C140.508 38.7541 139.889 38.8714 139.334 39.1061C138.801 39.3194 138.385 39.6394 138.086 40.0661C137.788 40.4927 137.638 41.0047 137.638 41.6021C137.638 42.2207 137.788 42.7434 138.086 43.1701C138.385 43.5967 138.801 43.9167 139.334 44.1301C139.889 44.3434 140.508 44.4501 141.19 44.4501C141.894 44.4501 142.502 44.3434 143.014 44.1301C143.548 43.9167 143.964 43.5967 144.262 43.1701C144.582 42.7434 144.742 42.2207 144.742 41.6021C144.742 41.0047 144.582 40.4927 144.262 40.0661C143.964 39.6394 143.548 39.3194 143.014 39.1061C142.502 38.8714 141.894 38.7541 141.19 38.7541ZM164.292 48.0021H185.124V51.3621H164.292V48.0021ZM161.156 56.9301H188.004V60.3861H161.156V56.9301ZM164.292 36.7381H184.9V40.1941H168.516V49.4101H164.292V36.7381Z" fill="#007AFF"/>
<defs>
<filter id="filter0_d_449_2432" x="0" y="0" width="374" height="218" filterUnits="userSpaceOnUse" color-interpolation-filters="sRGB">
<feFlood flood-opacity="0" result="BackgroundImageFix"/>
<feColorMatrix in="SourceAlpha" type="matrix" values="0 0 0 0 0 0 0 0 0 0 0 0 0 0 0 0 0 0 127 0" result="hardAlpha"/>
<feOffset dy="4"/>
<feGaussianBlur stdDeviation="5"/>
<feComposite in2="hardAlpha" operator="out"/>
<feColorMatrix type="matrix" values="0 0 0 0 0 0 0 0 0 0 0 0 0 0 0 0 0 0 0.1 0"/>
<feBlend mode="normal" in2="BackgroundImageFix" result="effect1_dropShadow_449_2432"/>
<feBlend mode="normal" in="SourceGraphic" in2="effect1_dropShadow_449_2432" result="shape"/>
</filter>
</defs>
</svg>
