<svg width="18" height="18" viewBox="0 0 18 18" fill="none" xmlns="http://www.w3.org/2000/svg">
<path d="M14.5 5.53031C14.5 8.74981 12 9.24981 12 12.2503C12 13.7993 10.4385 13.9298 9.25 13.9298C8.2235 13.9298 5.957 13.5403 5.957 12.2493C5.957 9.25031 3.5 8.75031 3.5 5.53031C3.5 2.51481 6.1425 0.0703125 9.0415 0.0703125C11.9415 0.0703125 14.5 2.51481 14.5 5.53031Z" fill="#FFD983"/>
<path d="M11.0835 16.2498C11.0835 16.6638 9.9665 17.4998 9 17.4998C8.0335 17.4998 6.9165 16.6638 6.9165 16.2498C6.9165 15.8358 8.033 15.9998 9 15.9998C9.967 15.9998 11.0835 15.8358 11.0835 16.2498Z" fill="#CCD6DD"/>
<path d="M11.3535 5.14642C11.2597 5.05269 11.1326 5.00003 11 5.00003C10.8674 5.00003 10.7403 5.05269 10.6465 5.14642L9 6.79292L7.3535 5.14642C7.30708 5.1 7.25197 5.06318 7.19131 5.03805C7.13066 5.01293 7.06565 5 7 5C6.93435 5 6.86934 5.01293 6.80869 5.03805C6.74803 5.06318 6.69292 5.1 6.6465 5.14642C6.60008 5.19285 6.56325 5.24796 6.53813 5.30861C6.51301 5.36927 6.50008 5.43427 6.50008 5.49992C6.50008 5.56558 6.51301 5.63058 6.53813 5.69124C6.56325 5.75189 6.60008 5.807 6.6465 5.85342L8.5 7.70692V12.9999C8.5 13.1325 8.55268 13.2597 8.64645 13.3535C8.74022 13.4472 8.86739 13.4999 9 13.4999C9.13261 13.4999 9.25979 13.4472 9.35355 13.3535C9.44732 13.2597 9.5 13.1325 9.5 12.9999V7.70692L11.3535 5.85342C11.4472 5.75966 11.4999 5.63251 11.4999 5.49992C11.4999 5.36734 11.4472 5.24019 11.3535 5.14642Z" fill="#FFCC4D"/>
<path d="M12 15.5C12 15.7652 11.8946 16.0196 11.7071 16.2071C11.5196 16.3946 11.2652 16.5 11 16.5H7C6.73478 16.5 6.48043 16.3946 6.29289 16.2071C6.10536 16.0196 6 15.7652 6 15.5V12.5H12V15.5Z" fill="#99AAB5"/>
<path d="M5.9995 16.0001C5.87429 15.9997 5.75381 15.9522 5.66189 15.8672C5.56996 15.7822 5.51327 15.6658 5.50303 15.541C5.49278 15.4162 5.52974 15.2921 5.60657 15.1933C5.68341 15.0944 5.79454 15.028 5.918 15.0071L11.918 14.0071C11.9828 13.996 12.0491 13.9978 12.1132 14.0125C12.1773 14.0271 12.2378 14.0544 12.2913 14.0926C12.3448 14.1308 12.3901 14.1793 12.4248 14.2351C12.4594 14.291 12.4826 14.3532 12.493 14.4181C12.5147 14.5489 12.4836 14.6829 12.4065 14.7907C12.3294 14.8985 12.2127 14.9713 12.082 14.9931L6.082 15.9931C6.05474 15.9977 6.02715 16.0001 5.9995 16.0001ZM5.9995 14.0001C5.87429 13.9997 5.75381 13.9522 5.66189 13.8672C5.56996 13.7822 5.51327 13.6658 5.50303 13.541C5.49278 13.4162 5.52974 13.2921 5.60657 13.1933C5.68341 13.0944 5.79454 13.028 5.918 13.0071L11.918 12.0071C11.9828 11.996 12.0491 11.9979 12.1132 12.0126C12.1772 12.0273 12.2377 12.0545 12.2912 12.0928C12.3446 12.131 12.39 12.1794 12.4246 12.2352C12.4593 12.2911 12.4825 12.3532 12.493 12.4181C12.5147 12.5489 12.4836 12.6829 12.4065 12.7907C12.3294 12.8985 12.2127 12.9713 12.082 12.9931L6.082 13.9931C6.05474 13.9977 6.02715 14.0001 5.9995 14.0001Z" fill="#CCD6DD"/>
</svg>
