<svg width="20" height="21" viewBox="0 0 20 21" fill="none" xmlns="http://www.w3.org/2000/svg">
<path d="M2.19751 20.8408C1.59399 20.8408 1.11646 20.7031 0.764893 20.4277C0.419189 20.1523 0.246338 19.7773 0.246338 19.3027C0.246338 18.7168 0.389893 18.1045 0.677002 17.4658C0.964111 16.833 1.3772 16.2148 1.91626 15.6113C2.46118 15.002 3.12036 14.457 3.8938 13.9766C4.6731 13.4902 5.55786 13.1035 6.5481 12.8164C7.53833 12.5234 8.61938 12.377 9.79126 12.377C10.969 12.377 12.053 12.5234 13.0432 12.8164C14.0334 13.1035 14.9153 13.4902 15.6887 13.9766C16.468 14.457 17.1301 15.002 17.675 15.6113C18.22 16.2148 18.6331 16.833 18.9143 17.4658C19.2014 18.1045 19.345 18.7168 19.345 19.3027C19.345 19.7773 19.1721 20.1523 18.8264 20.4277C18.4807 20.7031 18.0032 20.8408 17.3938 20.8408H2.19751ZM9.80005 10.3643C9.18481 10.3643 8.60181 10.2354 8.05103 9.97754C7.5061 9.71973 7.02271 9.36523 6.60083 8.91406C6.18481 8.45703 5.85669 7.92676 5.61646 7.32324C5.38208 6.71387 5.26489 6.06055 5.26489 5.36328C5.26489 4.67773 5.38208 4.03906 5.61646 3.44727C5.85669 2.85547 6.18774 2.33398 6.60962 1.88281C7.03149 1.43164 7.51489 1.08301 8.05981 0.836914C8.6106 0.584961 9.19067 0.458984 9.80005 0.458984C10.4211 0.458984 11.0042 0.582031 11.5491 0.828125C12.094 1.07422 12.5745 1.41992 12.9905 1.86523C13.4124 2.31055 13.7434 2.8291 13.9836 3.4209C14.2239 4.0127 14.344 4.6543 14.344 5.3457C14.344 6.2832 14.136 7.13281 13.72 7.89453C13.3098 8.65039 12.759 9.25098 12.0676 9.69629C11.3821 10.1416 10.6262 10.3643 9.80005 10.3643Z" fill="#999999"/>
</svg>
