<svg width="19" height="21" viewBox="0 0 19 21" fill="none" xmlns="http://www.w3.org/2000/svg">
<path d="M0.209961 15.459C0.209961 16.1719 0.756836 16.6406 1.68457 16.6406H5.80566C5.88379 18.5254 7.3584 20.1758 9.41894 20.1758C11.4893 20.1758 12.9639 18.5352 13.042 16.6406H17.1631C18.0811 16.6406 18.6377 16.1719 18.6377 15.459C18.6377 14.4824 17.6416 13.6035 16.8018 12.7344C16.1573 12.0605 15.9815 10.6738 15.9034 9.55078C15.835 5.70312 14.8389 3.22266 12.2412 2.28516C11.9092 1.00586 10.8643 0 9.41894 0C7.9834 0 6.92871 1.00586 6.60644 2.28516C4.00879 3.22266 3.01269 5.70312 2.94434 9.55078C2.86621 10.6738 2.69043 12.0605 2.0459 12.7344C1.19629 13.6035 0.209961 14.4824 0.209961 15.459ZM2.10449 15.166V15.0488C2.28027 14.7656 2.86621 14.1895 3.37402 13.623C4.07715 12.8418 4.40918 11.582 4.49707 9.67773C4.57519 5.41016 5.84473 4.05273 7.51465 3.59375C7.75879 3.53516 7.89551 3.41797 7.90527 3.16406C7.93457 2.14844 8.52051 1.43555 9.41894 1.43555C10.3272 1.43555 10.9034 2.14844 10.9424 3.16406C10.9522 3.41797 11.0791 3.53516 11.3233 3.59375C13.003 4.05273 14.2725 5.41016 14.3506 9.67773C14.4385 11.582 14.7705 12.8418 15.4639 13.623C15.9815 14.1895 16.5577 14.7656 16.7334 15.0488V15.166H2.10449ZM7.3291 16.6406H11.5186C11.4405 17.9688 10.6006 18.7988 9.41894 18.7988C8.24707 18.7988 7.39746 17.9688 7.3291 16.6406Z" fill="black" fill-opacity="0.85"/>
</svg>
