<svg width="19" height="18" viewBox="0 0 19 18" fill="none" xmlns="http://www.w3.org/2000/svg">
<g clip-path="url(#clip0_308_1848)">
<path d="M4.87986 12.9866C7.68196 15.8308 11.0369 17.9904 13.7342 17.9904C15.0018 17.9904 16.1073 17.4794 16.8317 16.6599C17.5275 15.8693 17.7657 15.2812 17.7657 14.7606C17.7657 14.3557 17.5179 13.9797 16.8889 13.5361L14.5633 11.849C13.982 11.4344 13.7246 11.3573 13.3814 11.3573C13.086 11.3573 12.8382 11.4151 12.3426 11.685L10.8177 12.5335C10.6365 12.6395 10.5603 12.6589 10.4269 12.6589C10.2457 12.6589 10.1219 12.6106 9.94076 12.5335C9.21645 12.196 8.19664 11.3862 7.29119 10.4703C6.38575 9.55437 5.68046 8.61919 5.31828 7.8961C5.27063 7.79969 5.21344 7.64543 5.21344 7.49117C5.21344 7.36584 5.28016 7.25979 5.3564 7.12481L6.25232 5.57258C6.50013 5.14837 6.56684 4.91699 6.56684 4.58919C6.56684 4.21318 6.44293 3.80825 6.09029 3.29727L4.48909 1.04125C4.0316 0.395287 3.68849 0 3.17381 0C2.53524 0 1.76323 0.491699 1.21043 1.0316C0.419363 1.80289 0 2.8827 0 4.09749C0 6.84521 2.08728 10.1714 4.87986 12.9866Z" fill="#969696"/>
</g>
<defs>
<clipPath id="clip0_308_1848">
<rect width="18.1184" height="18" fill="white"/>
</clipPath>
</defs>
</svg>
