<svg width="21" height="20" viewBox="0 0 21 20" fill="none" xmlns="http://www.w3.org/2000/svg">
<path d="M10.6809 19.9571C16.179 19.9571 20.6419 15.4942 20.6419 9.9961C20.6419 4.49805 16.179 0.0351562 10.6809 0.0351562C5.18286 0.0351562 0.719971 4.49805 0.719971 9.9961C0.719971 15.4942 5.18286 19.9571 10.6809 19.9571ZM10.6809 18.2969C6.09106 18.2969 2.38013 14.586 2.38013 9.9961C2.38013 5.40625 6.09106 1.69532 10.6809 1.69532C15.2708 1.69532 18.9817 5.40625 18.9817 9.9961C18.9817 14.586 15.2708 18.2969 10.6809 18.2969Z" fill="black" fill-opacity="0.85"/>
<path d="M10.4758 12.0176C10.9641 12.0176 11.2669 11.7051 11.2669 11.3243C11.2669 11.2852 11.2669 11.2364 11.2669 11.2071C11.2669 10.6602 11.5794 10.3086 12.263 9.85937C13.2102 9.23437 13.8841 8.66796 13.8841 7.49609C13.8841 5.87499 12.4388 4.99609 10.7786 4.99609C9.09888 4.99609 7.99536 5.79687 7.73169 6.69531C7.68286 6.85156 7.65356 7.00781 7.65356 7.17382C7.65356 7.61327 7.99536 7.84765 8.31763 7.84765C8.64966 7.84765 8.8645 7.6914 9.04028 7.45703L9.21606 7.22265C9.55786 6.65624 10.0657 6.32421 10.72 6.32421C11.6087 6.32421 12.1848 6.83203 12.1848 7.57421C12.1848 8.23827 11.7747 8.56054 10.9251 9.15624C10.2219 9.64453 9.69458 10.1622 9.69458 11.1192C9.69458 11.1582 9.69458 11.2071 9.69458 11.2461C9.69458 11.754 9.97778 12.0176 10.4758 12.0176ZM10.4563 14.9278C11.0227 14.9278 11.511 14.4786 11.511 13.9122C11.511 13.3457 11.0325 12.8965 10.4563 12.8965C9.88013 12.8965 9.40161 13.3555 9.40161 13.9122C9.40161 14.4688 9.88989 14.9278 10.4563 14.9278Z" fill="black" fill-opacity="0.85"/>
</svg>
