<svg width="104" height="104" viewBox="0 0 104 104" fill="none" xmlns="http://www.w3.org/2000/svg">
<g filter="url(#filter0_d_159_1893)">
<path fill-rule="evenodd" clip-rule="evenodd" d="M62.5268 7.35144C84.9768 13.1651 98.4625 36.0766 92.6489 58.5267C86.8353 80.9767 63.9227 94.4626 41.4738 88.6489C19.0238 82.8353 5.53808 59.9226 11.3507 37.4737C17.1653 15.0236 40.0768 1.53675 62.5268 7.35144Z" fill="url(#paint0_radial_159_1893)"/>
<path fill-rule="evenodd" clip-rule="evenodd" d="M67.936 18.001C71.3345 21.1748 74.3309 27.3297 73.8827 31.673C73.1472 38.8176 60.5927 38.36 60.977 30.0589C61.1781 25.7263 64.3247 20.3931 67.936 18.001Z" fill="url(#paint1_linear_159_1893)"/>
<path d="M27.5059 57.87C28.3337 57.5969 28.7842 56.7053 28.5122 55.8776C28.2391 55.0498 27.3462 54.5993 26.5186 54.8712L16.7051 58.1208C15.8773 58.3927 15.4268 59.2856 15.7 60.1132C15.9719 60.941 16.8647 61.3916 17.6924 61.1183L27.5059 57.87Z" fill="#2B2A29"/>
<path d="M56.8942 59.5487C57.7539 59.6811 58.5568 59.0935 58.6904 58.235C58.8229 57.3752 58.234 56.5723 57.3755 56.4388L44.9511 54.4935C44.0926 54.3599 43.2884 54.9488 43.156 55.8073C43.0237 56.6658 43.6113 57.4699 44.4698 57.6024L56.8942 59.5487Z" fill="#2B2A29"/>
<path d="M42.8 71.8398C43.6443 72.0515 44.5016 71.5371 44.7122 70.6928C44.9226 69.8473 44.4094 68.9912 43.5639 68.7796C41.2119 68.1835 38.4532 67.8973 35.7122 68.1173C33.294 68.3113 30.8758 68.9002 28.7355 70.014C27.9622 70.4161 27.6606 71.3691 28.0627 72.1413C28.4646 72.9147 29.4178 73.2162 30.1911 72.8142C31.9329 71.9072 33.9361 71.4259 35.9594 71.2639C38.348 71.0712 40.7508 71.3219 42.8 71.8398Z" fill="#2B2A29"/>
</g>
<defs>
<filter id="filter0_d_159_1893" x="0" y="0" width="104" height="104" filterUnits="userSpaceOnUse" color-interpolation-filters="sRGB">
<feFlood flood-opacity="0" result="BackgroundImageFix"/>
<feColorMatrix in="SourceAlpha" type="matrix" values="0 0 0 0 0 0 0 0 0 0 0 0 0 0 0 0 0 0 127 0" result="hardAlpha"/>
<feOffset dy="4"/>
<feGaussianBlur stdDeviation="5"/>
<feComposite in2="hardAlpha" operator="out"/>
<feColorMatrix type="matrix" values="0 0 0 0 0 0 0 0 0 0 0 0 0 0 0 0 0 0 0.1 0"/>
<feBlend mode="normal" in2="BackgroundImageFix" result="effect1_dropShadow_159_1893"/>
<feBlend mode="normal" in="SourceGraphic" in2="effect1_dropShadow_159_1893" result="shape"/>
</filter>
<radialGradient id="paint0_radial_159_1893" cx="0" cy="0" r="1" gradientUnits="userSpaceOnUse" gradientTransform="translate(39.4316 37.9571) rotate(14.519) scale(133.103 133.103)">
<stop stop-color="#FFE28E"/>
<stop offset="1" stop-color="#F9B86C"/>
</radialGradient>
<linearGradient id="paint1_linear_159_1893" x1="68.1406" y1="20.6178" x2="65.0377" y2="35.4605" gradientUnits="userSpaceOnUse">
<stop stop-color="#33BEFF"/>
<stop offset="1" stop-color="#298FE3"/>
</linearGradient>
</defs>
</svg>
