<svg width="12" height="12" viewBox="0 0 12 12" fill="none" xmlns="http://www.w3.org/2000/svg">
<g clip-path="url(#clip0_479_3807)">
<path d="M2.26426 11.1471C2.48214 11.3166 2.75846 11.2583 3.08793 11.0199L5.89903 8.95897L8.71545 11.0199C9.04488 11.2583 9.31592 11.3166 9.53908 11.1471C9.75695 10.9828 9.80479 10.7126 9.67196 10.3258L8.56135 7.03048L11.399 4.99603C11.7285 4.76292 11.8613 4.51921 11.7763 4.25431C11.6912 4.00001 11.4415 3.87285 11.0323 3.87815L7.55167 3.89934L6.49417 0.588078C6.36668 0.196027 6.17535 0 5.89903 0C5.62799 0 5.43671 0.196027 5.30917 0.588078L4.25169 3.89934L0.771035 3.87815C0.361861 3.87285 0.112104 4.00001 0.0270807 4.25431C-0.063257 4.51921 0.0749062 4.76292 0.404373 4.99603L3.24204 7.03048L2.13141 10.3258C1.99856 10.7126 2.04639 10.9828 2.26426 11.1471ZM3.02947 10.098C3.01885 10.0875 3.02416 10.0821 3.02947 10.0504L4.08696 7.01991C4.16135 6.81326 4.11884 6.64904 3.93285 6.52187L1.28649 4.69935C1.25992 4.68345 1.25461 4.67286 1.25992 4.65696C1.26524 4.64107 1.27587 4.64107 1.30775 4.64107L4.52271 4.69935C4.74058 4.70465 4.87874 4.61458 4.94782 4.39736L5.87248 1.3298C5.87776 1.29802 5.88842 1.28742 5.89903 1.28742C5.91498 1.28742 5.92559 1.29802 5.93092 1.3298L6.85554 4.39736C6.92459 4.61458 7.06281 4.70465 7.28063 4.69935L10.4956 4.64107C10.5275 4.64107 10.5381 4.64107 10.5434 4.65696C10.5487 4.67286 10.5381 4.68345 10.5169 4.69935L7.87049 6.52187C7.6845 6.64904 7.642 6.81326 7.71639 7.01991L8.77389 10.0504C8.77922 10.0821 8.7845 10.0875 8.77389 10.098C8.76328 10.1139 8.74734 10.1033 8.72606 10.0875L6.17002 8.14308C5.99997 8.0106 5.80337 8.0106 5.63332 8.14308L3.0773 10.0875C3.05604 10.1033 3.04011 10.1139 3.02947 10.098Z" fill="#969696" fill-opacity="0.85"/>
</g>
<defs>
<clipPath id="clip0_479_3807">
<rect width="12" height="12" fill="white"/>
</clipPath>
</defs>
</svg>
