<svg width="144" height="144" viewBox="0 0 144 144" fill="none" xmlns="http://www.w3.org/2000/svg">
<g filter="url(#filter0_d_10_276)">
<path fill-rule="evenodd" clip-rule="evenodd" d="M71.9992 6C37.7581 6 10 33.7585 10 68C10 102.242 37.7581 130 71.9992 130C106.242 130 134 102.242 134 68C134 33.7585 106.242 6 71.9992 6Z" fill="url(#paint0_radial_10_276)"/>
<path fill-rule="evenodd" clip-rule="evenodd" d="M82.2463 49.3574C83.0796 65.4375 63.571 85.0139 42.6856 80.9268C21.5715 76.7966 16.0708 51.012 25.8045 36.8933C26.7207 35.564 82.125 46.9938 82.2463 49.3574Z" fill="#282829"/>
<path fill-rule="evenodd" clip-rule="evenodd" d="M46.3054 81.2752C40.1601 80.4894 28.9055 76.3731 36.8234 70.1801C39.4327 68.1388 43.1637 66.8158 47.7803 67.4067C52.2405 67.9762 55.4865 70.0558 57.7243 72.4256C65.8939 81.0817 52.6241 82.081 46.3054 81.2752Z" fill="url(#paint1_linear_10_276)"/>
<path d="M83.78 49.2812C83.8737 51.1029 83.7278 52.9554 83.3673 54.8064C82.0443 61.5642 77.8235 68.4032 71.8778 73.6431C65.9382 78.8738 58.2473 82.5388 49.9718 82.9685C47.4824 83.0975 44.9438 82.9348 42.3946 82.436C38.4441 81.664 35.0015 80.1676 32.07 78.1462C26.9807 74.6377 23.4568 69.5544 21.4892 63.9309C19.5339 58.338 19.1164 52.2019 20.2215 46.5461C20.9674 42.7321 22.4101 39.1208 24.545 36.025C24.8734 35.5508 25.4105 35.3007 26.1366 35.2622C28.7288 35.1287 41.8175 37.5 54.7295 40.2596C67.697 43.0315 80.6199 46.2362 82.8377 47.7663C83.4255 48.1731 83.7478 48.675 83.78 49.2812ZM80.3529 54.2186C80.6245 52.8219 80.7596 51.4376 80.738 50.0839C77.9924 48.7056 66.1209 45.8324 54.0926 43.2616C41.9878 40.6756 29.8431 38.4286 26.6952 38.3242C25.0147 40.9333 23.8604 43.9462 23.2358 47.1339C22.2305 52.2756 22.6096 57.8469 24.3839 62.9209C26.1457 67.9613 29.2875 72.5042 33.8121 75.623C36.4011 77.4079 39.457 78.7325 42.9824 79.4216C45.2922 79.8745 47.5807 80.0217 49.8152 79.9052C57.3494 79.5153 64.3865 76.1464 69.8472 71.3363C75.3003 66.5324 79.1604 60.3164 80.3529 54.2186Z" fill="#FED788"/>
<path d="M28.3898 43.6771C28.6247 42.572 29.7113 41.8659 30.8164 42.0992L72.0146 50.8615C73.1197 51.0963 73.8256 52.183 73.5924 53.2881C71.8089 60.4724 26.7109 50.3642 28.3898 43.6771Z" fill="#E5E4E5"/>
<path d="M83.5472 26.244C84.6691 26.3636 85.4826 27.3704 85.3643 28.494C85.2447 29.6159 84.2363 30.4309 83.1143 30.3111C80.12 29.9888 77.649 30.2098 75.5984 30.7639C75.0476 30.9128 74.5272 31.0861 74.0345 31.2781C74.3891 31.4669 74.7375 31.6617 75.0798 31.8629C76.7144 32.8205 78.2076 33.9072 79.5537 35.0797C80.407 35.8226 80.4975 37.1164 79.7547 37.9713C79.0118 38.8247 77.718 38.9137 76.8631 38.1709C75.6676 37.1288 74.3813 36.1879 73.0139 35.3852C71.7047 34.6178 70.3004 33.9563 68.804 33.4314C68.4341 33.3009 68.0964 33.0645 67.8433 32.7269C67.1664 31.8244 67.349 30.5444 68.2515 29.8675C69.9367 28.6045 71.9948 27.4963 74.5411 26.8087C77.0336 26.1348 80.0003 25.8617 83.5472 26.244Z" fill="#2B2A29"/>
<path d="M30.9829 20.3615C29.9039 20.0254 29.3022 18.8789 29.6384 17.7999C29.973 16.721 31.121 16.1178 32.2 16.4539C35.6025 17.5129 38.2163 18.9464 40.2406 20.561C42.3049 22.2095 43.7523 24.0435 44.7944 25.8715C45.3515 26.8522 45.0077 28.1015 44.027 28.6571C43.6633 28.8644 43.2628 28.9457 42.8744 28.9181C41.2981 28.8091 39.7435 28.8567 38.2285 29.0408C36.6324 29.2358 35.0761 29.5857 33.5843 30.0584C32.5053 30.3992 31.3528 29.8005 31.0136 28.7215C30.6743 27.6427 31.2714 26.4915 32.3504 26.1507C34.074 25.6045 35.8743 25.2007 37.7329 24.9736H37.7405C38.1319 24.926 38.5249 24.8877 38.9209 24.8554C38.5462 24.4839 38.1396 24.1188 37.6945 23.7641C36.0385 22.4427 33.8622 21.2579 30.9829 20.3615Z" fill="#2B2A29"/>
</g>
<defs>
<filter id="filter0_d_10_276" x="0" y="0" width="144" height="144" filterUnits="userSpaceOnUse" color-interpolation-filters="sRGB">
<feFlood flood-opacity="0" result="BackgroundImageFix"/>
<feColorMatrix in="SourceAlpha" type="matrix" values="0 0 0 0 0 0 0 0 0 0 0 0 0 0 0 0 0 0 127 0" result="hardAlpha"/>
<feOffset dy="4"/>
<feGaussianBlur stdDeviation="5"/>
<feComposite in2="hardAlpha" operator="out"/>
<feColorMatrix type="matrix" values="0 0 0 0 0 0 0 0 0 0 0 0 0 0 0 0 0 0 0.1 0"/>
<feBlend mode="normal" in2="BackgroundImageFix" result="effect1_dropShadow_10_276"/>
<feBlend mode="normal" in="SourceGraphic" in2="effect1_dropShadow_10_276" result="shape"/>
</filter>
<radialGradient id="paint0_radial_10_276" cx="0" cy="0" r="1" gradientUnits="userSpaceOnUse" gradientTransform="translate(65.7692 48.0862) rotate(180) scale(196.529 196.536)">
<stop stop-color="#FFE28E"/>
<stop offset="1" stop-color="#F9B86C"/>
</radialGradient>
<linearGradient id="paint1_linear_10_276" x1="48.4725" y1="68.32" x2="45.6853" y2="96.1137" gradientUnits="userSpaceOnUse">
<stop stop-color="#EE7B78"/>
<stop offset="1" stop-color="#65221D"/>
</linearGradient>
</defs>
</svg>
