<svg width="48" height="48" viewBox="0 0 48 48" fill="none" xmlns="http://www.w3.org/2000/svg">
<mask id="mask0_449_2261" style="mask-type:alpha" maskUnits="userSpaceOnUse" x="0" y="0" width="48" height="48">
<circle cx="24" cy="24" r="24" fill="#D9D9D9"/>
</mask>
<g mask="url(#mask0_449_2261)">
<path d="M0 35.0041V13.0062C0 12.1562 0.0819297 11.3062 0.245787 10.4664C0.409645 9.62664 0.65543 8.81759 0.983145 8.02903C1.31086 7.24047 1.71026 6.49287 2.18135 5.78623C2.65244 5.07959 3.19522 4.42416 3.79945 3.81994C4.40367 3.21572 5.0591 2.67294 5.76574 2.20185C6.49285 1.72052 7.24045 1.32111 8.02902 0.993399C8.81758 0.665684 9.62663 0.419897 10.4664 0.25604C11.3062 0.0921824 12.1459 0.0102539 13.0062 0.0102539H35.0041C35.8541 0.0102539 36.7041 0.0921824 37.5438 0.25604C38.3836 0.419897 39.1927 0.665684 39.9812 0.993399C40.7698 1.32111 41.5174 1.72052 42.224 2.19161C42.9307 2.6627 43.5861 3.20548 44.1903 3.8097C44.7945 4.41392 45.3373 5.06935 45.8084 5.77599C46.2795 6.48262 46.6789 7.23022 47.0066 8.01879C47.3343 8.80735 47.5801 9.6164 47.744 10.4562C47.9078 11.2959 47.9898 12.1357 47.9898 12.996V34.9938C47.9898 35.8438 47.9078 36.6938 47.744 37.5336C47.5801 38.3734 47.3343 39.1824 47.0066 39.971C46.6789 40.7596 46.2795 41.5072 45.8084 42.2138C45.3373 42.9204 44.7945 43.5759 44.1903 44.1801C43.5861 44.7843 42.9307 45.3271 42.224 45.7982C41.5174 46.2693 40.7698 46.6687 39.9812 46.9964C39.1927 47.3241 38.3836 47.5699 37.5438 47.7337C36.7041 47.8976 35.8643 47.9795 35.0041 47.9795H13.0062C12.1562 47.9795 11.3062 47.8976 10.4664 47.7337C9.62663 47.5699 8.81758 47.3241 8.02902 46.9964C7.24045 46.6687 6.49285 46.2693 5.78622 45.7982C5.07958 45.3271 4.42415 44.7843 3.81993 44.1801C3.2157 43.5759 2.67292 42.9204 2.20183 42.2138C1.73074 41.5072 1.33134 40.7596 1.00363 39.971C0.675912 39.1824 0.430126 38.3734 0.266269 37.5336C0.0921704 36.7041 0 35.8541 0 35.0041Z" fill="#FCFCFC"/>
<mask id="mask1_449_2261" style="mask-type:luminance" maskUnits="userSpaceOnUse" x="0" y="0" width="48" height="48">
<path d="M48 0H0V48H48V0Z" fill="white"/>
</mask>
<g mask="url(#mask1_449_2261)">
<path d="M37.124 16.5291V16.6008C37.124 17.205 37.6258 17.7068 38.23 17.7068C38.8445 17.7068 39.336 17.205 39.336 16.6008V16.5291C39.336 16.2526 40.3192 16.2526 40.3192 16.5291V16.6008C40.3192 17.7581 39.377 18.69 38.2198 18.69C37.0625 18.69 36.1306 17.7478 36.1306 16.6008V16.5291C36.1408 16.2629 37.124 16.2629 37.124 16.5291ZM18.7105 20.2466C19.4478 20.2466 20.0111 20.6051 20.2159 21.281C19.7141 21.4141 19.2123 21.4756 18.7002 21.4756C17.9322 21.4756 17.6556 21.4039 17.1641 21.2708C17.3587 20.6768 18.0141 20.2466 18.7105 20.2466ZM39.4589 14.4399H37.0113C35.4342 14.4399 34.1233 15.6586 34.0107 17.2358L33.8366 19.7653C33.7546 20.9635 34.7071 21.9774 35.9053 21.9876H40.565C41.7734 21.9876 42.7156 20.9738 42.6337 19.7653L42.4596 17.2358C42.3469 15.6586 41.0361 14.4399 39.4589 14.4399ZM30.9076 14.317C29.4124 15.7406 30.8462 18.8436 28.122 20.1545C27.825 20.2978 27.569 19.8268 27.1696 19.8268C26.0329 19.837 23.8515 20.8406 23.7696 21.3424C23.6979 21.7623 24.6298 22.09 27.3642 22.1003C29.7504 22.1003 30.5185 18.4749 31.348 18.4749C32.1775 18.4749 31.7884 21.7623 31.7064 22.1003H32.5769C32.5052 21.7623 32.4438 20.728 32.454 19.2737C32.454 17.8195 32.7203 17.4918 32.9251 16.396C33.0992 15.4333 31.6859 14.6038 30.9076 14.317ZM17.9117 15.7508C17.205 14.3478 16.2833 14.102 15.8225 14.4707C15.4743 14.7472 14.655 15.8635 14.6038 15.9351C13.7128 17.205 13.764 17.5123 14.911 18.2394C15.5562 18.649 16.0785 18.1267 16.3038 17.9629C16.1912 18.6285 15.8635 19.6834 15.3719 20.431C15.1056 20.2262 14.911 20.0725 14.7881 19.9599C14.6345 19.8165 14.399 19.8268 14.2454 19.9701C14.1737 20.0418 14.1327 20.134 14.1429 20.2364C14.1429 20.3388 14.1942 20.431 14.2556 20.4924C15.4538 21.5882 17.0207 22.2027 18.69 22.2129C20.3695 22.2129 21.9467 21.5985 23.1449 20.4924C23.2985 20.3491 23.3087 20.1135 23.1654 19.9701C23.0117 19.8165 22.7762 19.8165 22.6226 19.9599C22.5304 20.0418 22.4382 20.1237 22.3358 20.2057L21.8135 19.0382C21.7316 18.8334 21.6394 18.5876 21.537 18.2803C21.5882 18.1575 21.7009 18.0346 21.8545 17.8707C21.9671 17.7581 22.0593 17.6454 22.131 17.543C22.4792 16.99 22.2846 16.6725 22.172 16.4574C21.9262 15.9556 21.537 16.1195 21.2503 16.4165C20.9021 16.7851 20.5641 16.9388 20.0213 17.0617C19.5707 17.1641 19.2123 17.1129 18.9255 16.9285C18.5261 16.6725 17.9117 15.7508 17.9117 15.7508ZM11.214 14.1839H11.0194C10.2206 14.2351 9.66759 14.5833 9.36036 15.0544C9.00192 14.5116 8.32601 14.1327 7.31214 14.1942L7.29166 14.2249C7.17901 14.4092 6.73864 15.249 7.44528 16.1604C7.58865 16.3141 7.94709 16.7544 7.80371 17.3074L5.73501 20.646C5.57115 20.9226 5.64284 21.2707 5.89887 21.4551C6.43141 21.834 7.50672 22.3461 9.3706 22.3461C11.2242 22.3461 12.2996 21.834 12.8321 21.4551L12.9038 21.3936C13.1086 21.1991 13.1496 20.8918 12.9959 20.646L10.9375 17.3074L10.9477 17.3689L10.9272 17.2767C10.8146 16.7749 11.0911 16.3755 11.255 16.2014L11.2959 16.1604C12.0128 15.249 11.5724 14.4092 11.4495 14.2249L11.4291 14.1942L11.214 14.1839ZM21.2708 24.9371H15.6996C15.1363 24.9371 14.6652 25.3979 14.6652 25.9612V33.007C14.6652 33.5703 15.1261 34.0414 15.6996 34.0414H21.2708C21.834 34.0414 22.3051 33.5805 22.2949 33.007C22.2949 32.4438 21.834 31.9727 21.2708 31.9727H16.7237V30.5082H20.6768C21.24 30.5082 21.7111 30.0474 21.7111 29.4841C21.7111 28.9208 21.2503 28.4498 20.6768 28.4498H16.7237V26.9853H21.2708C21.834 26.9853 22.3051 26.5244 22.2949 25.9509C22.2949 25.3979 21.834 24.9371 21.2708 24.9371ZM12.361 24.9371H6.34948C5.78622 24.9371 5.31513 25.3979 5.31513 25.9612C5.31513 26.5244 5.77598 26.9955 6.34948 26.9955H8.32601V33.007C8.32601 33.5703 8.78686 34.0414 9.35012 34.0414C9.91338 34.0414 10.3845 33.5805 10.3845 33.007V26.9955H12.361C12.9243 26.9955 13.3954 26.5347 13.3954 25.9612C13.3954 25.3979 12.9345 24.9371 12.361 24.9371ZM41.2818 24.9371C40.7186 24.9371 40.2475 25.3979 40.2475 25.9612V30.2727C40.2475 31.6245 39.4794 32.3209 38.23 32.3209C36.9703 32.3209 36.2125 31.604 36.2125 30.2112V25.9612C36.2125 25.3979 35.7517 24.9268 35.1782 24.9371C34.6149 24.9371 34.1438 25.3979 34.154 25.9612V30.2522C34.154 32.7613 35.6902 34.0414 38.1993 34.0414C40.7083 34.0414 42.306 32.7715 42.306 30.1907V25.9612C42.306 25.3979 41.8553 24.9371 41.2818 24.9371ZM25.3365 24.9371H24.7015C24.1383 24.9371 23.6672 25.3979 23.6774 25.9612V33.0173C23.6774 33.5805 24.1383 34.0516 24.7015 34.0516C25.2648 34.0516 25.7359 33.5908 25.7359 33.0173V28.3883L27.4666 30.8359C27.825 31.3377 28.5726 31.3377 28.9413 30.8359L30.6721 28.3883V33.0173C30.6721 33.5805 31.1329 34.0516 31.7064 34.0516C32.2697 34.0516 32.7408 33.5908 32.7305 33.0173V25.9612C32.7305 25.3979 32.2697 24.9268 31.7064 24.9371H31.0715C30.8257 24.9371 30.5901 25.0497 30.457 25.2545L28.2142 28.6341L25.9612 25.2545C25.8178 25.06 25.5822 24.9371 25.3365 24.9371ZM37.339 0C43.2276 0 48.0102 4.77235 48.0102 10.6712V37.3288C48.0102 43.2174 43.2379 48 37.339 48H10.6712C4.78259 48 0 43.2276 0 37.3288V10.6712C0 4.78259 4.77235 0 10.6712 0H37.339Z" fill="#FB7701"/>
</g>
</g>
</svg>
