<svg width="11" height="12" viewBox="0 0 11 12" fill="none" xmlns="http://www.w3.org/2000/svg">
<g clip-path="url(#clip0_479_3775)">
<path d="M0 7.91584C0 9.65163 1.1191 11.1133 2.47155 11.1133H4.16346C4.83703 11.4734 5.65383 11.683 6.56603 11.683H7.27674C7.91321 11.683 8.46478 11.6453 8.83078 11.554C9.54149 11.3766 9.987 10.8769 9.987 10.2428C9.987 10.1084 9.96576 9.99017 9.93394 9.87197C10.284 9.60326 10.4802 9.21095 10.4802 8.78101C10.4802 8.57146 10.4378 8.36185 10.3635 8.19528C10.6022 7.94809 10.7348 7.58803 10.7348 7.21185C10.7348 6.97 10.6765 6.71208 10.5757 6.52399C10.7189 6.31438 10.8038 6.01882 10.8038 5.70713C10.8038 4.93328 10.2045 4.32065 9.44069 4.32065H7.50485C7.38813 4.32065 7.31389 4.26692 7.31389 4.16481C7.31389 3.60592 8.18373 2.29467 8.18373 1.24138C8.18373 0.515899 7.68516 0 7.00095 0C6.49711 0 6.15767 0.263324 5.82355 0.908197C5.20299 2.11734 4.46046 3.20287 3.25121 4.69683H2.28062C1.01832 4.69683 0 6.14242 0 7.91584ZM2.98602 7.88893C2.98602 6.76579 3.23529 6.05107 3.92478 5.11062C4.69383 4.06808 5.7599 2.82132 6.52894 1.27362C6.71984 0.881326 6.84714 0.795343 7.03278 0.795343C7.25024 0.795343 7.39872 0.951191 7.39872 1.24138C7.39872 2.07972 6.52894 3.34797 6.52894 4.16481C6.52894 4.75594 7.00628 5.116 7.61618 5.116H9.44069C9.76954 5.116 10.0188 5.36857 10.0188 5.70713C10.0188 5.95433 9.93926 6.11017 9.74304 6.31438C9.64756 6.40039 9.63691 6.50786 9.71648 6.60994C9.88093 6.85713 9.94985 7.00764 9.94985 7.21185C9.94985 7.45365 9.83846 7.66326 9.60509 7.84056C9.47784 7.9427 9.42478 8.07702 9.49902 8.23826C9.63165 8.48011 9.6953 8.59292 9.6953 8.78101C9.6953 9.05511 9.52025 9.26466 9.14899 9.45815C9.03233 9.52803 9.00577 9.62472 9.05351 9.73758C9.18081 10.06 9.19673 10.1084 9.19673 10.2428C9.19673 10.4899 9.01642 10.6888 8.64515 10.7855C8.3428 10.8607 7.8602 10.893 7.28206 10.893H6.62442C4.43925 10.893 2.98602 9.6355 2.98602 7.88893ZM0.784955 7.91584C0.784955 6.5777 1.49566 5.49217 2.28062 5.49217C2.43443 5.49217 2.58823 5.49217 2.74205 5.49217C2.36548 6.2123 2.20106 6.96461 2.20106 7.87281C2.20106 8.83477 2.5405 9.67309 3.15043 10.3126C2.92237 10.3126 2.69961 10.3126 2.47155 10.3126C1.57522 10.3126 0.784955 9.21629 0.784955 7.91584Z" fill="#969696" fill-opacity="0.85"/>
</g>
<defs>
<clipPath id="clip0_479_3775">
<rect width="11" height="12" fill="white"/>
</clipPath>
</defs>
</svg>
